<?xml version="1.0" standalone="no"?>
<!DOCTYPE svg PUBLIC "-//W3C//DTD SVG 20010904//EN"
    "http://www.w3.org/TR/2001/REC-SVG-20010904/DTD/svg10.dtd">
<svg version="1.0" xmlns="http://www.w3.org/2000/svg"
    width="325.000000pt" height="325.000000pt" viewBox="0 0 325.000000 325.000000"
    preserveAspectRatio="xMidYMid meet">
<metadata>
    Created by potrace 1.14, written by Peter Selinger 2001-2017
</metadata>
<g transform="translate(0.000000,325.000000) scale(0.100000,-0.100000)"
fill="#000000" stroke="none">
    <path d="M940 3024 c-425 -76 -676 -374 -605 -717 41 -197 180 -337 412 -416
    63 -22 199 -57 251 -66 102 -16 129 -22 186 -41 54 -18 130 -55 157 -76 29
    -24 53 -71 51 -101 -4 -48 -40 -87 -111 -121 -60 -28 -75 -31 -161 -31 -82 0
    -103 4 -150 26 -90 43 -162 129 -184 221 l-6 28 -233 -4 c-127 -3 -245 -5
    -261 -5 l-29 -1 7 -96 c20 -285 200 -486 506 -565 110 -29 159 -34 325 -34
    137 1 187 4 283 21 l32 6 0 -421 0 -421 238 4 c130 3 251 5 267 5 l30 1 0 281
    c0 154 4 283 8 286 4 2 94 6 198 8 221 4 268 9 365 36 185 50 325 162 402 322
    201 411 -46 918 -487 1003 -42 8 -160 17 -266 19 -104 3 -300 7 -435 10 -135
    3 -258 7 -275 9 -16 3 -55 7 -85 10 -60 6 -114 15 -197 32 -7 1 -41 12 -75 23
    -145 49 -227 124 -214 196 12 63 82 114 191 139 153 36 278 -25 306 -149 l13
    -56 165 5 c91 2 203 5 249 5 l83 1 -2 48 c-3 59 -33 171 -61 226 -24 47 -96
    143 -127 168 -107 89 -256 157 -401 183 -72 13 -286 13 -360 -1z"/>
</g>
</svg>
